<?xml version="1.0" standalone="no"?><!DOCTYPE svg PUBLIC "-//W3C//DTD SVG 1.1//EN" "http://www.w3.org/Graphics/SVG/1.1/DTD/svg11.dtd"><svg t="1713597004947" class="icon" viewBox="0 0 1024 1024" version="1.1" xmlns="http://www.w3.org/2000/svg" p-id="8636" xmlns:xlink="http://www.w3.org/1999/xlink" width="19" height="19"><path d="M964.266667 942.933333l-221.866667-238.933333c64-72.533333 106.666667-166.4 106.666667-273.066667 0-226.133333-183.466667-409.6-409.6-409.6S29.866667 204.8 29.866667 430.933333s183.466667 409.6 409.6 409.6c89.6 0 170.666667-29.866667 238.933333-76.8l221.866667 238.933334c8.533333 8.533333 21.333333 12.8 29.866666 12.8 8.533333 0 21.333333-4.266667 29.866667-12.8 21.333333-17.066667 21.333333-42.666667 4.266667-59.733334z m-844.8-512c0-179.2 145.066667-324.266667 324.266666-324.266666S768 251.733333 768 430.933333s-145.066667 324.266667-324.266667 324.266667-324.266667-149.333333-324.266666-324.266667z" fill="#ffffff" p-id="8637"></path></svg>