<?xml version="1.0" standalone="no"?><!DOCTYPE svg PUBLIC "-//W3C//DTD SVG 1.1//EN" "http://www.w3.org/Graphics/SVG/1.1/DTD/svg11.dtd"><svg t="1713859822321" class="icon" viewBox="0 0 1024 1024" version="1.1" xmlns="http://www.w3.org/2000/svg" p-id="7592" xmlns:xlink="http://www.w3.org/1999/xlink" width="64" height="64"><path d="M953.486822 1024h-899.845751c-8.436054 0-28.12018-5.624036-28.12018-25.308162s16.872108-28.12018 28.12018-30.932197h899.845751c16.872108 0 28.12018 14.06009 28.120179 28.120179 0 11.248072-5.624036 28.12018-28.120179 28.12018z m-573.651667-177.157132c-5.624036 8.436054-2.812018 8.436054-16.872107 8.436054h-253.081618c-25.308162 0-28.12018-2.812018-28.12018-28.12018 0-28.12018 0-28.12018 0 0v-253.081617L590.736503 34.169674c28.12018-28.12018 53.428341-47.804306 81.548521-22.496144l239.021528 239.021528s28.12018 30.932198-14.06009 70.300449L379.835155 846.842868zM672.285024 96.034069c-30.932198-36.556234-44.992288-8.436054-56.240359 0l-478.043055 506.163235v196.841258h196.841258l478.043055-478.043055c8.436054-11.248072 44.992288-39.368252 28.12018-56.240359l-168.721079-168.721079z" fill="#545E68" p-id="7593"></path></svg>