<?xml version="1.0" standalone="no"?><!DOCTYPE svg PUBLIC "-//W3C//DTD SVG 1.1//EN" "http://www.w3.org/Graphics/SVG/1.1/DTD/svg11.dtd"><svg t="1713860031733" class="icon" viewBox="0 0 1152 1024" version="1.1" xmlns="http://www.w3.org/2000/svg" p-id="7754" xmlns:xlink="http://www.w3.org/1999/xlink" width="72" height="64"><path d="M575.424 64c141.184 0 274.56 41.344 375.616 116.928 104.192 77.952 162.432 183.488 162.432 296.704 0 154.688-110.72 293.824-283.712 364.928l-13.824 5.376-10.368 73.984c0 17.92-10.688 33.92-26.624 40.96l-6.208 2.24a45.312 45.312 0 0 1-50.688-20.224c1.024 1.792 0.96 2.112 0 1.152l-2.944-3.392-4.864-6.208-18.368-24.704-19.328-27.712-27.712 3.584a700.8 700.8 0 0 1-48.896 3.392l-24.512 0.384c-141.12 0-274.496-41.344-375.552-116.928C95.68 696.512 37.44 590.976 37.44 477.76c0-113.28 58.24-218.88 162.432-296.832C300.992 105.408 434.304 64 575.424 64z m0 63.36c-127.872 0-247.872 37.248-337.6 104.32-88.96 66.432-137.024 153.728-137.024 246.08 0 92.288 48.128 179.456 136.96 245.952 89.792 67.136 209.792 104.32 337.728 104.32 37.12 0 74.24-3.2 110.848-9.6l20.864-3.712 19.776 30.784c5.504 8.384 10.88 16.256 16.128 23.552l5.12 7.04 10.24-74.88 18.368-6.4c167.616-58.176 273.28-182.528 273.28-317.184 0-92.224-48.128-179.456-137.024-245.952-89.728-67.072-209.728-104.32-337.664-104.32z m335.552 307.648l5.376 0.896a27.648 27.648 0 0 1 19.84 33.088c-33.6 128.768-181.44 220.928-351.104 220.928-169.728 0-317.568-92.16-351.296-221.44a27.52 27.52 0 0 1 53.376-13.376c27.072 103.424 152.064 179.84 297.92 179.84 145.792 0 270.848-76.48 297.984-180.288a27.52 27.52 0 0 1 33.28-18.752zM576.64 320.384c72.768 0 131.776 25.792 131.776 57.6 0 31.872-59.008 57.6-131.776 57.6-72.704 0-131.712-25.728-131.712-57.6 0-31.808 59.008-57.6 131.712-57.6z m221.632-34.56a25.92 25.92 0 0 1 32.256-16.64c20.864 6.912 46.848 30.464 70.656 79.744a25.92 25.92 0 0 1-46.72 22.464c-15.36-31.488-30.016-47.36-40.32-52.928l-4.672-2.176a26.048 26.048 0 0 1-11.2-30.464z m-440.64 0a25.984 25.984 0 0 1-11.264 30.4l-4.672 2.24c-8.256 3.392-23.424 18.304-40.256 52.928a25.92 25.92 0 0 1-46.72-22.464c23.808-49.28 49.792-72.832 70.656-79.744 13.44-4.16 27.776 3.2 32.256 16.64z" fill="#2c2c2c" p-id="7755"></path></svg>