<?xml version="1.0" standalone="no"?><!DOCTYPE svg PUBLIC "-//W3C//DTD SVG 1.1//EN"
        "http://www.w3.org/Graphics/SVG/1.1/DTD/svg11.dtd">
<svg t="1713599017275" class="icon" viewBox="0 0 1024 1024" version="1.1" xmlns="http://www.w3.org/2000/svg" p-id="4361"
     xmlns:xlink="http://www.w3.org/1999/xlink" width="19" height="19">
    <path d="M841.557333 795.477333c26.069333 0.128 49.834667 23.338667 50.346667 49.194667 0.469333 25.258667-22.869333 50.005333-48.426667 51.285333-27.392 1.365333-53.461333-24.277333-52.650666-51.754666 0.768-26.026667 24.533333-48.853333 50.730666-48.725334z m-463.146666 0.170667c26.453333 0.426667 49.408 23.381333 49.621333 49.493333 0.213333 27.562667-26.112 52.48-53.461333 50.688-25.984-1.706667-47.872-26.026667-46.933334-52.053333a50.56 50.56 0 0 1 50.773334-48.128zM121.301333 129.408c29.013333-2.090667 58.410667-1.578667 87.552-0.298667 25.514667 1.109333 34.346667 19.754667 40.277334 41.941334 25.045333 94.378667 50.773333 188.544 76.501333 282.709333 5.888 21.674667 12.544 43.136 19.114667 65.749333 156.074667-18.773333 308.778667-37.12 461.482666-55.722666 38.357333-4.693333 48.426667-14.933333 50.432-52.053334 1.28-24.064 0.256-48.256 0.256-77.184-21.546667-1.152-38.698667-2.816-55.893333-2.858666-125.013333-0.256-250.026667-0.042667-375.04-0.256-14.549333 0-29.312-0.341333-43.605333-2.645334-20.352-3.328-31.146667-17.28-31.872-37.418666-0.682667-20.352 10.666667-34.346667 29.525333-39.893334 10.624-3.114667 22.528-2.432 33.834667-2.432 152.618667-0.128 305.237333-0.298667 457.813333 0 55.296 0.128 65.962667 10.88 66.474667 65.066667 0.426667 40.746667 0.981333 81.493333-0.213334 122.197333-1.792 62.122667-36.394667 98.773333-98.346666 106.112-140.202667 16.64-280.405333 33.066667-420.565334 49.792-11.221333 1.322667-22.997333 2.56-33.066666 7.082667-5.845333 2.56-12.458667 11.776-12.16 17.664 0.298667 6.229333 7.509333 16 13.226666 17.28 14.08 3.114667 28.928 2.901333 43.52 2.901333 144.469333 0.170667 288.981333 0.085333 433.493334 0.170667 12.970667 0 26.154667-0.725333 38.826666 1.365333 21.546667 3.498667 36.053333 20.906667 34.304 40.362667-1.792 19.925333-12.714667 33.664-32.64 37.162667-12.672 2.218667-25.898667 1.706667-38.826666 1.706666-151.04 0.085333-301.994667 0.170667-452.992 0-78.592-0.128-106.453333-22.570667-126.976-99.413333-32.768-122.581333-65.92-245.12-99.072-367.616-3.370667-12.416-7.68-24.576-12.629334-40.106667-20.565333-1.024-36.864-0.554667-52.778666-2.858666-22.058667-3.2-34.56-17.493333-35.84-39.765334-1.152-19.882667 13.482667-37.12 35.84-38.741333z"
          fill="#FF2133" p-id="4362"></path>
</svg>